# xmcd
#
# Track frame offsets: 
#        150
#        1354
#        25892
#        26875
#        55521
#        56336
#        82215
#        84848
#        113560
#        114430
#        142861
#        143919
#        175444
#        176352
#        203124
#        205385
#        234745
#        235803
#        264354
#        265219
#        294234
#        296855
#        331584
#        332530
#
# Disc length: 4789 seconds
#
# Revision: 1
# Processed by: cddbd v1.5.2PL0 Copyright (c) Steve Scherf et al.
# Submitted via: ExactAudioCopy v1.0b6
#
DISCID=4d12b318
DTITLE=Dr. Schmidt - Gunkanjima
DYEAR=2011
DGENRE=Electronic
TTITLE0=The Beginning
TTITLE1=Close Encounter
TTITLE2=Face To Face
TTITLE3=Drome
TTITLE4=Battle Stations
TTITLE5=Engine (Cozmic Remix)
TTITLE6=Startup
TTITLE7=Gunhed
TTITLE8=To The Core
TTITLE9=Axis
TTITLE10=The Island
TTITLE11=Gunkanjima
TTITLE12=Sweet
TTITLE13=Sugar
TTITLE14=Damage
TTITLE15=Metal Master
TTITLE16=The Rift
TTITLE17=Shifter
TTITLE18=Approach
TTITLE19=Signals
TTITLE20=1000 Suns
TTITLE21=Woven Darkness
TTITLE22=Far From Over
TTITLE23=Engine
EXTD=
EXTT0=
EXTT1=
EXTT2=
EXTT3=
EXTT4=
EXTT5=
EXTT6=
EXTT7=
EXTT8=
EXTT9=
EXTT10=
EXTT11=
EXTT12=
EXTT13=
EXTT14=
EXTT15=
EXTT16=
EXTT17=
EXTT18=
EXTT19=
EXTT20=
EXTT21=
EXTT22=
EXTT23=
PLAYORDER=
